<svg width="166" height="166" viewBox="0 0 166 166" fill="none" xmlns="http://www.w3.org/2000/svg">
<rect width="166" height="166" rx="20" fill="#E6E6E6"/>
<path fill-rule="evenodd" clip-rule="evenodd" d="M40 75L44 79V95H40V87H36V95H32V79L36 75H40ZM40 80.6568V83H36V80.6568L37.6569 79H38.3431L40 80.6568Z" fill="black"/>
<path fill-rule="evenodd" clip-rule="evenodd" d="M60 77V85L58 87L60 89V95H56V89L54 87H52V95H48V75H58L60 77ZM56 79V83.3431L55.6569 83H52V79H56Z" fill="black"/>
<path fill-rule="evenodd" clip-rule="evenodd" d="M116 75L120 79V95H116V87H112V95H108V79L112 75H116ZM116 80.6569V83H112V80.6569L113.657 79H114.343L116 80.6569Z" fill="black"/>
<path fill-rule="evenodd" clip-rule="evenodd" d="M134 75L136 77V85L134 87L136 89V95H132V89L130 87H128V95H124V75H134ZM132 79V83.3431L131.657 83H128V79H132Z" fill="black"/>
<path d="M28 83H20V79H28V75H16V95H20V87H28V83Z" fill="black"/>
<path d="M144 79H140V75H152V79H148V95H144V79Z" fill="black"/>
<path d="M72 71L84 99L96 71L100 59L104 67L108 71L104 79V91L112 107H92L96 91V83.2361L95.9056 83.1888L84 107L72.0944 83.1888L72 83.2361V91L76 107H56L64 91V79L60 71L64 67L68 59L72 71Z" fill="#8A181A"/>
<path fill-rule="evenodd" clip-rule="evenodd" d="M166 20C166 8.95431 157.046 0 146 0H20C8.95431 0 0 8.9543 0 20V146C0 157.046 8.9543 166 20 166H146C157.046 166 166 157.046 166 146V20ZM162.68 23.32C162.68 12.2743 153.726 3.32 142.68 3.32H23.32C12.2743 3.32 3.32 12.2743 3.32 23.32V142.68C3.32 153.726 12.2743 162.68 23.32 162.68H142.68C153.726 162.68 162.68 153.726 162.68 142.68V23.32Z" fill="black"/>
</svg>
